<?xml version="1.0" standalone="no"?>
<!DOCTYPE svg PUBLIC "-//W3C//DTD SVG 20010904//EN"
 "http://www.w3.org/TR/2001/REC-SVG-20010904/DTD/svg10.dtd">
<svg version="1.0" xmlns="http://www.w3.org/2000/svg"
 width="600.000000pt" height="600.000000pt" viewBox="0 0 600.000000 600.000000"
 preserveAspectRatio="xMidYMid meet">
<metadata>
Created by potrace 1.14, written by Peter Selinger 2001-2017
</metadata>
<g transform="translate(0.000000,600.000000) scale(0.100000,-0.100000)"
fill="#000000" stroke="none">
<path d="M3228 5489 l-198 -111 0 -213 c0 -117 3 -221 6 -230 6 -15 411 -225
435 -225 14 0 357 187 382 208 15 14 17 38 17 226 l0 212 -213 122 c-116 67
-217 122 -222 122 -6 0 -99 -50 -207 -111z"/>
<path d="M4468 4812 l-368 -187 0 -451 c0 -417 1 -452 18 -466 9 -9 182 -98
383 -199 l366 -183 354 190 354 189 3 454 c1 326 -1 458 -9 467 -12 15 -710
374 -725 374 -5 0 -174 -85 -376 -188z"/>
<path d="M1110 4199 c-354 -176 -648 -325 -652 -332 -4 -7 -8 -433 -8 -948 0
-879 1 -937 17 -951 10 -9 295 -155 634 -324 l617 -308 258 120 259 121 5
-256 c3 -141 7 -257 8 -258 1 0 311 -160 688 -353 641 -330 687 -352 712 -341
95 43 1289 667 1300 679 9 12 12 214 12 932 0 718 -3 920 -12 932 -11 13
-1294 688 -1323 696 -5 1 -117 -53 -247 -121 l-238 -124 0 227 c0 204 -2 228
-17 242 -27 23 -1337 688 -1354 687 -8 0 -304 -144 -659 -320z"/>
</g>
</svg>
